<svg width="194" height="19" viewBox="0 0 194 19" fill="none" xmlns="http://www.w3.org/2000/svg">
<path d="M14 6.48C14 7.056 13.888 7.52 13.664 7.872C13.456 8.208 13.224 8.472 12.968 8.664C12.68 8.888 12.344 9.04 11.96 9.12V9.36C12.408 9.456 12.808 9.632 13.16 9.888C13.464 10.112 13.736 10.432 13.976 10.848C14.232 11.248 14.36 11.792 14.36 12.48V14.04C14.36 16.84 12.96 18.24 10.16 18.24H4.64C1.84 18.24 0.44 16.84 0.44 14.04V12.48C0.44 11.792 0.56 11.248 0.8 10.848C1.056 10.432 1.336 10.112 1.64 9.888C1.992 9.632 2.392 9.456 2.84 9.36V9.12C2.44 9.04 2.096 8.888 1.808 8.664C1.552 8.472 1.32 8.208 1.112 7.872C0.904 7.52 0.8 7.056 0.8 6.48V5.16C0.8 2.36 2.2 0.959999 5 0.959999H9.8C12.6 0.959999 14 2.36 14 5.16V6.48ZM5.6 11.16C4.72 11.16 4.28 11.6 4.28 12.48V13.56C4.28 14.44 4.72 14.88 5.6 14.88H9.2C10.08 14.88 10.52 14.44 10.52 13.56V12.48C10.52 11.6 10.08 11.16 9.2 11.16H5.6ZM5.96 4.32C5.08 4.32 4.64 4.76 4.64 5.64V6.48C4.64 7.36 5.08 7.8 5.96 7.8H8.84C9.72 7.8 10.16 7.36 10.16 6.48V5.64C10.16 4.76 9.72 4.32 8.84 4.32H5.96ZM34.6437 6.48C34.6437 7.056 34.5317 7.52 34.3077 7.872C34.0998 8.208 33.8678 8.472 33.6117 8.664C33.3237 8.888 32.9877 9.04 32.6037 9.12V9.36C33.0517 9.456 33.4517 9.632 33.8038 9.888C34.1077 10.112 34.3797 10.432 34.6197 10.848C34.8758 11.248 35.0038 11.792 35.0038 12.48V14.04C35.0038 16.84 33.6038 18.24 30.8038 18.24H25.2837C22.4837 18.24 21.0837 16.84 21.0837 14.04V12.48C21.0837 11.792 21.2037 11.248 21.4437 10.848C21.6997 10.432 21.9797 10.112 22.2837 9.888C22.6357 9.632 23.0357 9.456 23.4837 9.36V9.12C23.0837 9.04 22.7397 8.888 22.4517 8.664C22.1957 8.472 21.9637 8.208 21.7557 7.872C21.5477 7.52 21.4437 7.056 21.4437 6.48V5.16C21.4437 2.36 22.8437 0.959999 25.6437 0.959999H30.4437C33.2437 0.959999 34.6437 2.36 34.6437 5.16V6.48ZM26.2437 11.16C25.3637 11.16 24.9237 11.6 24.9237 12.48V13.56C24.9237 14.44 25.3637 14.88 26.2437 14.88H29.8437C30.7237 14.88 31.1637 14.44 31.1637 13.56V12.48C31.1637 11.6 30.7237 11.16 29.8437 11.16H26.2437ZM26.6037 4.32C25.7237 4.32 25.2837 4.76 25.2837 5.64V6.48C25.2837 7.36 25.7237 7.8 26.6037 7.8H29.4837C30.3637 7.8 30.8038 7.36 30.8038 6.48V5.64C30.8038 4.76 30.3637 4.32 29.4837 4.32H26.6037ZM51.9284 14.04C51.9284 16.84 50.5284 18.24 47.7284 18.24H41.7284C38.9284 18.24 37.5284 16.84 37.5284 14.04V5.16C37.5284 2.36 38.9284 0.959999 41.7284 0.959999H47.7284C50.5284 0.959999 51.9284 2.36 51.9284 5.16V14.04ZM48.0884 5.64C48.0884 4.76 47.6484 4.32 46.7684 4.32H42.6884C41.8084 4.32 41.3684 4.76 41.3684 5.64V13.56C41.3684 14.44 41.8084 14.88 42.6884 14.88H46.7684C47.6484 14.88 48.0884 14.44 48.0884 13.56V5.64ZM69.0941 14.04C69.0941 16.84 67.6941 18.24 64.8941 18.24H58.8941C56.0941 18.24 54.6941 16.84 54.6941 14.04V5.16C54.6941 2.36 56.0941 0.959999 58.8941 0.959999H64.8941C67.6941 0.959999 69.0941 2.36 69.0941 5.16V14.04ZM65.2541 5.64C65.2541 4.76 64.8141 4.32 63.9341 4.32H59.8541C58.9741 4.32 58.5341 4.76 58.5341 5.64V13.56C58.5341 14.44 58.9741 14.88 59.8541 14.88H63.9341C64.8141 14.88 65.2541 14.44 65.2541 13.56V5.64ZM89.6188 6.48C89.6188 7.056 89.5068 7.52 89.2828 7.872C89.0748 8.208 88.8428 8.472 88.5868 8.664C88.2988 8.888 87.9628 9.04 87.5788 9.12V9.36C88.0268 9.456 88.4268 9.632 88.7788 9.888C89.0828 10.112 89.3548 10.432 89.5948 10.848C89.8508 11.248 89.9788 11.792 89.9788 12.48V14.04C89.9788 16.84 88.5788 18.24 85.7788 18.24H80.2588C77.4588 18.24 76.0588 16.84 76.0588 14.04V12.48C76.0588 11.792 76.1788 11.248 76.4188 10.848C76.6748 10.432 76.9548 10.112 77.2588 9.888C77.6108 9.632 78.0108 9.456 78.4588 9.36V9.12C78.0588 9.04 77.7148 8.888 77.4268 8.664C77.1708 8.472 76.9388 8.208 76.7308 7.872C76.5228 7.52 76.4188 7.056 76.4188 6.48V5.16C76.4188 2.36 77.8188 0.959999 80.6188 0.959999H85.4188C88.2188 0.959999 89.6188 2.36 89.6188 5.16V6.48ZM81.2188 11.16C80.3388 11.16 79.8988 11.6 79.8988 12.48V13.56C79.8988 14.44 80.3388 14.88 81.2188 14.88H84.8188C85.6988 14.88 86.1388 14.44 86.1388 13.56V12.48C86.1388 11.6 85.6988 11.16 84.8188 11.16H81.2188ZM81.5788 4.32C80.6988 4.32 80.2588 4.76 80.2588 5.64V6.48C80.2588 7.36 80.6988 7.8 81.5788 7.8H84.4588C85.3388 7.8 85.7788 7.36 85.7788 6.48V5.64C85.7788 4.76 85.3388 4.32 84.4588 4.32H81.5788ZM92.3834 13.2C92.3834 12.8 92.5834 12.6 92.9834 12.6H95.6234C96.0234 12.6 96.2234 12.8 96.2234 13.2V13.56C96.2234 14.44 96.6634 14.88 97.5434 14.88H100.303C101.183 14.88 101.623 14.44 101.623 13.56V11.52H96.2234C93.4234 11.52 92.0234 10.12 92.0234 7.32V5.16C92.0234 2.36 93.4234 0.959999 96.2234 0.959999H101.263C104.063 0.959999 105.463 2.36 105.463 5.16V14.04C105.463 16.84 104.063 18.24 101.263 18.24H96.5834C93.7834 18.24 92.3834 16.84 92.3834 14.04V13.2ZM97.1834 4.32C96.3034 4.32 95.8634 4.76 95.8634 5.64V6.84C95.8634 7.72 96.3034 8.16 97.1834 8.16H101.623V5.64C101.623 4.76 101.183 4.32 100.303 4.32H97.1834ZM122.616 14.04C122.616 16.84 121.216 18.24 118.416 18.24H112.416C109.616 18.24 108.216 16.84 108.216 14.04V5.16C108.216 2.36 109.616 0.959999 112.416 0.959999H118.416C121.216 0.959999 122.616 2.36 122.616 5.16V14.04ZM118.776 5.64C118.776 4.76 118.336 4.32 117.456 4.32H113.376C112.496 4.32 112.056 4.76 112.056 5.64V13.56C112.056 14.44 112.496 14.88 113.376 14.88H117.456C118.336 14.88 118.776 14.44 118.776 13.56V5.64ZM143.141 6.48C143.141 7.056 143.029 7.52 142.805 7.872C142.597 8.208 142.365 8.472 142.109 8.664C141.821 8.888 141.485 9.04 141.101 9.12V9.36C141.549 9.456 141.949 9.632 142.301 9.888C142.605 10.112 142.877 10.432 143.117 10.848C143.373 11.248 143.501 11.792 143.501 12.48V14.04C143.501 16.84 142.101 18.24 139.301 18.24H133.781C130.981 18.24 129.581 16.84 129.581 14.04V12.48C129.581 11.792 129.701 11.248 129.941 10.848C130.197 10.432 130.477 10.112 130.781 9.888C131.133 9.632 131.533 9.456 131.981 9.36V9.12C131.581 9.04 131.237 8.888 130.949 8.664C130.693 8.472 130.461 8.208 130.253 7.872C130.045 7.52 129.941 7.056 129.941 6.48V5.16C129.941 2.36 131.341 0.959999 134.141 0.959999H138.941C141.741 0.959999 143.141 2.36 143.141 5.16V6.48ZM134.741 11.16C133.861 11.16 133.421 11.6 133.421 12.48V13.56C133.421 14.44 133.861 14.88 134.741 14.88H138.341C139.221 14.88 139.661 14.44 139.661 13.56V12.48C139.661 11.6 139.221 11.16 138.341 11.16H134.741ZM135.101 4.32C134.221 4.32 133.781 4.76 133.781 5.64V6.48C133.781 7.36 134.221 7.8 135.101 7.8H137.981C138.861 7.8 139.301 7.36 139.301 6.48V5.64C139.301 4.76 138.861 4.32 137.981 4.32H135.101ZM145.905 13.2C145.905 12.8 146.105 12.6 146.505 12.6H149.145C149.545 12.6 149.745 12.8 149.745 13.2V13.56C149.745 14.44 150.185 14.88 151.065 14.88H153.825C154.705 14.88 155.145 14.44 155.145 13.56V11.52H149.745C146.945 11.52 145.545 10.12 145.545 7.32V5.16C145.545 2.36 146.945 0.959999 149.745 0.959999H154.785C157.585 0.959999 158.985 2.36 158.985 5.16V14.04C158.985 16.84 157.585 18.24 154.785 18.24H150.105C147.305 18.24 145.905 16.84 145.905 14.04V13.2ZM150.705 4.32C149.825 4.32 149.385 4.76 149.385 5.64V6.84C149.385 7.72 149.825 8.16 150.705 8.16H155.145V5.64C155.145 4.76 154.705 4.32 153.825 4.32H150.705ZM176.138 14.04C176.138 16.84 174.738 18.24 171.938 18.24H165.938C163.138 18.24 161.738 16.84 161.738 14.04V5.16C161.738 2.36 163.138 0.959999 165.938 0.959999H171.938C174.738 0.959999 176.138 2.36 176.138 5.16V14.04ZM172.298 5.64C172.298 4.76 171.858 4.32 170.978 4.32H166.898C166.018 4.32 165.578 4.76 165.578 5.64V13.56C165.578 14.44 166.018 14.88 166.898 14.88H170.978C171.858 14.88 172.298 14.44 172.298 13.56V5.64ZM193.303 14.04C193.303 16.84 191.903 18.24 189.103 18.24H183.103C180.303 18.24 178.903 16.84 178.903 14.04V5.16C178.903 2.36 180.303 0.959999 183.103 0.959999H189.103C191.903 0.959999 193.303 2.36 193.303 5.16V14.04ZM189.463 5.64C189.463 4.76 189.023 4.32 188.143 4.32H184.063C183.183 4.32 182.743 4.76 182.743 5.64V13.56C182.743 14.44 183.183 14.88 184.063 14.88H188.143C189.023 14.88 189.463 14.44 189.463 13.56V5.64Z" fill="#1B1C21"/>
</svg>
